# xmcd
#
# Track frame offsets: 
#        150
#        26402
#        46185
#        66067
#        86937
#        106220
#        129032
#        147032
#        164040
#        187215
#
# Disc length: 2742 seconds
#
# Revision: 14
# Processed by: cddbd v1.5.2PL0 Copyright (c) Steve Scherf et al.
# Submitted via: ExactAudioCopy v1.0b1
#
DISCID=850ab40a
DTITLE=郑秀文 - 去爱吧
DYEAR=2000
DGENRE=国语流行
TTITLE0=我在的地方
TTITLE1=至理名言
TTITLE2=一直到春天过去
TTITLE3=讯号
TTITLE4=沉默的纵容
TTITLE5=眼泪的上游
TTITLE6=态度
TTITLE7=知道的请告诉我
TTITLE8=你要我勇敢
TTITLE9=不准哭
EXTD=YEAR: 2000
EXTT0=
EXTT1=
EXTT2=
EXTT3=
EXTT4=
EXTT5=
EXTT6=
EXTT7=
EXTT8=
EXTT9=
PLAYORDER=
